<svg id="Layer_1" data-name="Layer 1" xmlns="http://www.w3.org/2000/svg" viewBox="0 0 715 768"><defs><style>.cls-1{fill:#ffd972;}.cls-2{fill:#c1272d;}.cls-3{fill:#2e3192;}.cls-4{font-size:20px;font-family:BrandonGrotesque-BoldItalic, Brandon Grotesque;font-weight:700;font-style:italic;}.cls-5{fill:#fff;}.cls-6{fill:#ff931e;}</style></defs><title>Artboard 1</title><path class="cls-1" d="M642,92S99,132,47,132L82,556l591-42Z"/><polygon class="cls-2" points="126 498 100 657.97 620 702 592 506.99 126 498"/><path d="M518.75,150.4c-24.4-16-52.76-23.86-81.16-29.19A468.58,468.58,0,0,0,348.85,113a393.83,393.83,0,0,0-88.15,10.17c-27.23,6.42-56.2,15.31-79.5,31.24-8.92,6.1-20.67,14.91-20.74,26.93-.06,10.23,8.67,16.78,17.16,20.59,12.45,5.6,26.38,8.7,39.51,12.28q22.53,6.13,45.39,11c59.41,12.45,120.8,17.74,181.27,10.75a431.87,431.87,0,0,0,49.52-8.61c13.12-3.1,27.34-6.23,38.38-14.41,9.89-7.32,14.72-18.55,12-30.74-3.36-15.2-15.8-25.54-27.35-34.82-1.5-1.19-3.63.92-2.13,2.12,10.73,8.61,22.43,18,26.19,31.9,3.7,13.66-3.11,25.18-14.82,31.93-10.1,5.83-21.85,8.47-33.09,11.13a425.16,425.16,0,0,1-43.23,7.83c-55.75,7.15-112.47,3.69-167.64-6.38a786.92,786.92,0,0,1-82.54-19.91c-10.55-3.14-23.8-5.76-31.52-14.33-11.46-12.7,3.54-26.46,13.69-33.64,21.92-15.49,49.16-24.14,75-30.64A382,382,0,0,1,338,116.17a457.53,457.53,0,0,1,93.47,7c29.95,5.28,60.07,13,85.79,29.86,1.62,1.06,3.12-1.54,1.51-2.59Z"/><path d="M165.45,196.25c-5.35,10-.44,21.3,8,27.8,11.4,8.79,27.32,11.84,41,15.11A906,906,0,0,0,310,257c64.3,8.25,130.31,8.14,193.59-7.18,13.07-3.16,29.16-6.14,38-17.32,9.46-12,6.39-28.42,3.36-42.11-.42-1.89-3.31-1.09-2.89.79,2.9,13.13,6.17,29.55-3.8,40.63-8.66,9.63-23.47,12.21-35.48,15.12a455.87,455.87,0,0,1-86.22,12c-58.69,2.7-117.46-4.52-174.81-16.68-15.67-3.32-31.56-6.58-46.84-11.47-13.06-4.18-36.45-15.13-26.86-33,.91-1.7-1.68-3.22-2.6-1.52Z"/><path d="M179.48,235.33c-4.15,39.07-3.18,78.39-1.95,117.6q1.88,59.91,3.77,119.82l1.87,59.43c.61,19.31,2.17,38.92.35,58.2-1.42,15.09-7,31.56,6.22,43.14,10.42,9.14,25.31,11.3,38.4,13.92L286,659c18.35,3.68,36.72,8,55.3,10.43,18.82,2.43,37.35.66,55.91-2.88,18.95-3.61,37.77-8.06,56.43-13Q482,646.17,510,636.94c13.25-4.38,25.35-10.36,27.24-25.64,1-8.06-.52-16.21-1.17-24.23-.79-9.73-.95-19.51-.79-29.27.34-19.58,2-39.12,2.47-58.7,1-39.28-6-78.16-5.23-117.46.8-39.67,3.76-79.37,5.84-119l1.57-29.85c.1-1.92-2.9-1.92-3,0q-3,57.69-6.06,115.37c-1,19-1.88,38.06-1.24,57.1.63,18.7,2.86,37.29,4.2,55.94,2.71,37.5-2.52,74.74-1.49,112.21.25,8.89,1.28,17.66,2,26.51.65,8.58.36,17.88-6,24.39-5.74,5.85-14.25,8.16-21.81,10.63q-13.29,4.34-26.69,8.28-26.81,7.89-54.06,14.19c-18.67,4.31-37.64,8.78-56.81,10-18.7,1.2-36.87-2.24-55.12-5.9l-55.89-11.19c-16.57-3.32-33.91-5.52-50-10.7-6.64-2.13-13.46-5.19-18.21-10.48-6.71-7.44-6.17-17-4.76-26.35,2.72-18,2.45-35.67,1.87-53.79l-1.81-57.45-3.61-114.91c-1.19-37.63-2.92-75.36-1-113q.72-14.19,2.22-28.33c.2-1.92-2.8-1.91-3,0Z"/><path d="M187.45,501.82l-2.26-6.12-2.2,1.69c39.62,27.59,87.88,37.94,135.41,40.42,50.84,2.65,103.33.69,152.35-14a284.22,284.22,0,0,0,38.36-14.21c11.34-5.27,20.87-12.51,26.9-23.64.92-1.7-1.67-3.21-2.59-1.51-6,11-15.43,17.82-26.61,22.92a288.22,288.22,0,0,1-35.07,13,329.37,329.37,0,0,1-71.08,13.41,665,665,0,0,1-74.57,1.38c-24-.87-48.12-3.46-71.5-9.33-25-6.27-48.92-16.28-70.09-31a1.51,1.51,0,0,0-2.2,1.7l2.26,6.12c.66,1.79,3.56,1,2.89-.8Z"/><path class="cls-1" d="M193,498s145.87,82.74,334.94-3.13Z"/><polygon class="cls-3" points="467.58 340.93 467.58 359.13 469.26 358.66 469.26 339.31 467.58 340.93"/><polygon class="cls-3" points="460.87 347.39 460.87 361 462.55 360.53 462.55 345.78 460.87 347.39"/><polygon class="cls-3" points="481.02 327.99 481.02 355.39 482.7 354.92 482.7 326.37 481.02 327.99"/><polygon class="cls-3" points="464.23 344.16 464.23 360.06 465.91 359.59 465.91 342.54 464.23 344.16"/><polygon class="cls-3" points="470.94 337.69 470.94 358.19 472.62 357.73 472.62 336.08 470.94 337.69"/><polygon class="cls-3" points="477.66 331.23 477.66 356.32 479.34 355.86 479.34 329.61 477.66 331.23"/><polygon class="cls-3" points="474.3 334.46 474.3 357.26 475.98 356.79 475.98 332.84 474.3 334.46"/><polygon class="cls-3" points="444.08 363.56 444.08 365.67 445.76 365.2 445.76 361.94 444.08 363.56"/><polygon class="cls-3" points="447.44 360.33 447.44 364.74 449.12 364.27 449.12 358.71 447.44 360.33"/><polygon class="cls-3" points="441 366.53 442.4 366.14 442.4 365.18 441 366.53"/><polygon class="cls-3" points="450.79 357.1 450.79 363.8 452.47 363.33 452.47 355.48 450.79 357.1"/><polygon class="cls-3" points="457.51 350.63 457.51 361.93 459.19 361.46 459.19 349.01 457.51 350.63"/><polygon class="cls-3" points="454.15 353.86 454.15 362.87 455.83 362.4 455.83 352.24 454.15 353.86"/><polygon class="cls-3" points="511.24 336 511.24 346.98 512.92 346.51 512.92 336.98 511.24 336"/><polygon class="cls-3" points="514.6 337.96 514.6 346.04 516.28 345.57 516.28 338.93 514.6 337.96"/><polygon class="cls-3" points="507.88 334.05 507.88 347.91 509.56 347.44 509.56 335.03 507.88 334.05"/><polygon class="cls-3" points="504.52 332.1 504.52 348.85 506.2 348.38 506.2 333.08 504.52 332.1"/><polygon class="cls-3" points="521.32 341.86 521.32 344.17 522.99 343.7 522.99 342.84 521.32 341.86"/><polygon class="cls-3" points="522.99 342.84 522.99 343.7 524 343.42 522.99 342.84"/><polygon class="cls-3" points="517.96 339.91 517.96 345.11 519.64 344.64 519.64 340.89 517.96 339.91"/><polygon class="cls-3" points="487.73 322.34 487.73 353.52 489.41 353.05 489.41 323.31 487.73 322.34"/><polygon class="cls-3" points="501.17 330.15 501.17 349.78 502.85 349.31 502.85 331.12 501.17 330.15"/><polygon class="cls-3" points="491.09 324.29 491.09 352.58 492.77 352.12 492.77 325.27 491.09 324.29"/><polygon class="cls-3" points="484.38 324.76 484.38 354.45 486.06 353.99 486.06 323.14 484.38 324.76"/><polygon class="cls-3" points="497.81 328.2 497.81 350.71 499.49 350.25 499.49 329.17 497.81 328.2"/><polygon class="cls-3" points="494.31 326.24 494.31 351.65 495.99 351.18 495.99 327.22 494.31 326.24"/><polygon class="cls-2" points="455.78 315.38 514.01 298 487.94 379.71 455.78 315.38"/><path class="cls-3" d="M249.49,361.37c-5.23,11.94-18.25,16.11-30.11,12.13-19.84-6.66-26.42-30.12-26.6-47-.21-19.69,9.67-31.59,32.18-23.73,1.06.37,4,1.23,12,5.61,8.28,4.56,9.62.4,9.62.4.06,9.47.26,15.37.68,27.08-2.82-12-9.41-28.8-21.11-31.75C212.93,300.81,213,326.22,214,335.34c1.65,15.3,16.21,41.72,34.4,25.79Z"/><path class="cls-3" d="M286.45,386s2.68-3.57-.52-12c-.79-2.21-2.22-5.81-3.81-9.94-7.17-.91-10.31-1.35-17.83-2.63-1.21,10.85,2.47,19.41,9.06,23-9.43-1.26-18.93-2.93-28.22-5,9.17-5.48,14.72-15.82,18.48-25.34,4.87-12.36,9.27-25.27,14.8-37.54,3.93.66,6,1,10.07,1.6,9.62,19.27,18,39.17,27.51,58.43,5.3,10.7,8.42,12.24,8.42,12.24C311.73,388.25,299.07,387.35,286.45,386Zm-4.86-23.45c-3.32-8.8-6.57-17.63-9.82-26.46,0,0-1.24,3.09-4.74,13.14A58.49,58.49,0,0,0,264.4,360C271.64,361.25,274.69,361.68,281.59,362.57Z"/><path class="cls-3" d="M358.87,325.91c.09,10.19-.17,20.4-.51,30.57,16.45-2.11,17.52-16,17.52-16-.36,10.91-.77,21.81-1.13,32.71,0,0-.1-13.38-16.42-15.62-.24,8.21-.38,12.35-.48,20.29-.12,9.46,3.45,11.54,3.45,11.54-11,.2-22-.08-33.06-.4,0,0,3.79-1.91,3.95-11.5.3-14.12.67-28.24,1-42.36.17-9.61-3.71-12.07-3.71-12.07,17.23,1.3,34.47,2.36,51.74,1.15.25,9.31.05,14.26-.34,24.17-1.17-10.8-8.05-22.39-20.23-22.41Z"/><path class="cls-3" d="M438.08,353.8c-1,9.44-1.49,14.16-1.15,23.42a169.74,169.74,0,0,1-50.39,11.36s3.11-2.46,3.29-12c.34-13.82,1.33-27.61,1.69-41.42.19-9.54-3.47-11.52-3.47-11.52a472.62,472.62,0,0,0,51.8-8.63c.32,9.27-.18,14-1.17,23.49-.73-10.65-8.49-19.71-19.93-17.8l-3,.53a272.92,272.92,0,0,1-1.3,30.66c8.87-3.15,16.24-10.19,18.35-19.49-.81,10.63-2.07,21.22-2.87,31.85,0,0,.32-12.35-15.56-11.32a266.86,266.86,0,0,0-1.28,30.84c1.56-.35,2.34-.53,3.9-.93C429.07,379.29,435.16,365,438.08,353.8Z"/><path class="cls-3" d="M230.93,441.66c-.15,11.63-4.56,17-16.76,13.5l-17.68-4.87s2.1-1.07,1.74-10.64c-.72-14.6-1.71-29.18-2.43-43.77-.35-9.56-2.21-11.9-2.21-11.9s19.14,6,19.3,6c10.89,3,14.85,7.94,14.74,16.88-.08,6.34-3.56,12.2-9.09,12.91C227.05,423.9,231,432.55,230.93,441.66Zm-20.54-51.23c-.2,9.09.05,15.06.48,26.68,4.24,1.2,4.72-5.2,4.63-12.69C215.4,396.66,214.83,391.69,210.39,390.43Zm8.17,48.62c-.16-12.14-2.76-19.24-7.64-20.63.47,11.66,1,23.35.81,35C216.28,454.74,218.72,451.38,218.56,439.05Z"/><path class="cls-3" d="M273.34,401.45c-2.72,4.28-3,13.68-3.47,26.31-.17,4.28-.56,13.93-.56,13.93-.4,9.76-2.77,25.16-15.59,24.34-16.12-1-17.35-18.8-18-31.24.13-9.36.26-18.73.52-28.09s-1.78-11.5-1.78-11.5c8.09,1.68,12.21,2.42,20.5,3.72,0,0-2.45,1.26-2.89,10.78-.49,11-.87,22.09-1.29,33.14-.4,10.45,2.09,17.58,6,19.26,6.12,2.64,11.26-7,11.81-20.3,0,0,.32-9.3.57-14.13.46-8.71.9-20.79-5.95-27.54C267.24,400.7,269.27,401,273.34,401.45Z"/><path class="cls-3" d="M317.28,461.19c-4.16,10.09-15,10.46-19.77,10-4.27-.37-7.9-2.29-14.3-3.53a6,6,0,0,0-6.18,2.14c.16-8.64.34-14.31.7-25.6,2.85,9.44,9.07,24.86,19.7,26.28,2.54.34,4-1.44,4.14-4.35.19-3.68-1.69-7.9-7-12.76-5.1-4.63-11.21-9.69-15.09-17.72-4.41-9.13-2.85-20.9.86-26.78,3-4.74,7.72-6.71,15-6.1,3.25.27,5.9.82,13,3.21,4.68,1.57,6-1.59,6-1.59.12,8.47,0,14-.34,25-2.11-9.71-6.74-24.14-16.94-25.8-3.71-.61-6.73,3.37-5.44,9,2.18,9.55,14,15.29,20.68,21.67S321,452.23,317.28,461.19Z"/><path class="cls-3" d="M382.57,407.5c.15,8.64-.1,14.17-.61,25.25-1.1-10.64-5.55-22.23-17.37-24.24,0,18.6-1.32,37.21-2,55.79-.27,9.86,3.29,11.78,3.29,11.78-10.34-.51-20.7-1.29-31-2.23,0,0,3.28-1.42,3.52-11.14.59-18.34,1.72-36.69,1.71-55-11.68.64-16.78,12.42-18.58,22.33.33-10.74.5-16.11.41-24.48C342.1,406.72,362.35,407.46,382.57,407.5Z"/><path class="cls-3" d="M427.7,447.47c-.11,10.74-.16,16.12.53,24.55a232.34,232.34,0,0,1-42.9,4.62s3-1.66,3.28-11.69c.56-15.26,1.35-30.5,1.9-45.76.25-10-3.09-11.7-3.09-11.7,13.13-.22,26.16-.58,39.2-2.31.69,8.37.63,13.74.51,24.48-.94-9.13-3.58-20.79-14.29-21.88l-2.13.15c.29,10.84-.27,21.69-.71,32.52,12.44-3.58,12.7-18.89,12.7-18.89-.14,11.91-.61,23.81-.76,35.72,0,0,.25-14.35-12-15.66-.44,10.92-1,21.87-.73,32.8,1.25-.14,1.87-.22,3.07-.39C423.35,470.52,426.41,457.71,427.7,447.47Z"/><path class="cls-3" d="M465.43,440.16c.43,10.2.65,15.3,1.82,23.75-11,2.49-22.06,4.68-33.11,6.91,0,0,2.18-2.13,1.83-11.74-.3-14.56-.27-29.12-.58-43.69-.36-9.58-3-11-3-11,8-1.08,11.86-1.67,19.48-3,0,0-1.67,2.1-1.07,11.53.82,17.6.74,35.31,2.54,52.85l.63-.13C463.7,461.42,464.85,449.68,465.43,440.16Z"/><path class="cls-3" d="M513,419.74c-.42,14.33-6.49,34.28-21.12,38.76-15.62,4.78-22.93-14.39-23.61-27.5-.73-13.89,3.8-34.46,19.6-37.46C502.94,390.68,513.42,405.55,513,419.74Zm-16.29,4.5c-.22-7.19-3.41-31-8.74-30-5.48,1.07-5.13,25-4.81,33.37.39,10,4.85,30.38,8.63,30.13S497,433,496.71,424.24Z"/><text class="cls-4" transform="translate(232.14 494.03) rotate(21.19)"> </text><text class="cls-4" transform="matrix(0.94, 0.34, -0.34, 0.94, 236.5, 495.71)"> </text><text class="cls-4" transform="translate(240.86 497.29) rotate(18.8)"> </text><text class="cls-4" transform="translate(245.27 498.79) rotate(17.71)"> </text><text class="cls-4" transform="translate(249.68 500.2) rotate(16.67)"> </text><text class="cls-4" transform="translate(254.1 501.52) rotate(15.69)"> </text><text class="cls-4" transform="translate(258.64 502.84) rotate(14.07)">E</text><text class="cls-4" transform="matrix(0.98, 0.21, -0.21, 0.98, 269.28, 505.47)">s</text><text class="cls-4" transform="matrix(0.98, 0.19, -0.19, 0.98, 276.25, 507.01)">p</text><text class="cls-4" transform="translate(285.68 508.79) rotate(9.35)">r</text><text class="cls-4" transform="translate(292.28 509.88) rotate(8.07)">e</text><text class="cls-4" transform="translate(300.23 511) rotate(6.82)">s</text><text class="cls-4" transform="translate(307.01 511.81) rotate(5.72)">s</text><text class="cls-4" transform="translate(313.77 512.5) rotate(4.5)">o</text><text class="cls-4" transform="matrix(1, 0.06, -0.06, 1, 322.39, 513.16)"> </text><text class="cls-4" transform="translate(326.8 513.47) rotate(2.18)">G</text><text class="cls-4" transform="translate(339.65 513.93) rotate(0.77)">r</text><text class="cls-4" transform="translate(346.06 514.02) rotate(-0.3)">o</text><text class="cls-4" transform="translate(354.68 513.98) rotate(-1.55)">u</text><text class="cls-4" transform="translate(364.05 513.73) rotate(-2.84)">n</text><text class="cls-4" transform="translate(373.69 513.25) rotate(-4.1)">d</text><text class="cls-4" transform="translate(383.03 512.56) rotate(-4.99)"> </text><text class="cls-4" transform="matrix(0.99, -0.11, 0.11, 0.99, 387.45, 512.21)">C</text><text class="cls-4" transform="translate(399.59 510.91) rotate(-7.33)">o</text><text class="cls-4" transform="translate(408.15 509.82) rotate(-8.56)">ff</text><text class="cls-4" transform="translate(420 508.02) rotate(-9.72)">e</text><text class="cls-4" transform="matrix(0.98, -0.18, 0.18, 0.98, 427.88, 506.67)">e</text><path class="cls-5" d="M197.22,538.14l7.15-10.78a.26.26,0,0,1,.29-.12l.14,0a.31.31,0,0,1,.21.29l1.81,13.86c0,.27-.14.47-.35.39l-1.26-.43c-.22-.07-.3-.22-.34-.51l-.29-2.22-4.33-1.49-1.13,1.73a.41.41,0,0,1-.5.22l-1.26-.43A.36.36,0,0,1,197.22,538.14Zm7.09-1.75-.58-4.53h0l-2.28,3.54Z"/><path class="cls-5" d="M210.5,529.78a.29.29,0,0,1,.35-.26l1.34.43a.39.39,0,0,1,.2.44l-2.06,10.32,3.71,1.18a.37.37,0,0,1,.2.44l-.3,1.51a.28.28,0,0,1-.34.26l-5.33-1.7a.37.37,0,0,1-.2-.44Z"/><path class="cls-5" d="M216.12,531.71c0-.27.14-.42.35-.36l1.34.39a.4.4,0,0,1,.22.34l.15,7.82.06,0L222,533a.21.21,0,0,1,.29-.13l.26.07a.29.29,0,0,1,.21.28l.93,8.3.06,0,2.85-6.93a.29.29,0,0,1,.31-.18l1.34.4a.35.35,0,0,1,.18.52L223.35,547a.29.29,0,0,1-.31.18l-.24-.07a.31.31,0,0,1-.21-.28l-1.06-9.14-.08,0-4.13,7.6a.23.23,0,0,1-.28.13l-.24-.07a.36.36,0,0,1-.21-.34Z"/><path class="cls-5" d="M226.12,547.31l6.67-11.25a.25.25,0,0,1,.28-.14l.15,0c.14,0,.18.15.21.27l2.41,13.71c0,.26-.11.47-.33.41l-1.28-.34c-.21-.06-.3-.2-.36-.49l-.38-2.19-4.38-1.19L228.05,548a.43.43,0,0,1-.49.26l-1.27-.35A.36.36,0,0,1,226.12,547.31Zm7-2.24-.78-4.47,0,0-2.13,3.7Z"/><path class="cls-5" d="M239.24,544.77l-2.37-7.06c-.08-.28.08-.54.32-.48l1.5.37a.34.34,0,0,1,.21.23l1.68,4.87,3-3.68a.27.27,0,0,1,.27-.11l1.51.38a.38.38,0,0,1,.15.6l-4.37,5.34-.94,5.94c0,.18-.18.32-.33.28l-1.35-.34a.37.37,0,0,1-.23-.43Z"/><path class="cls-5" d="M244.52,550.7l.7-1a.3.3,0,0,1,.52,0c.07.07,1.1,1.45,2.06,1.67a1.27,1.27,0,0,0,1.56-1.12c.14-1-.4-1.75-1.55-2.68a4.9,4.9,0,0,1-2.18-4.68c.24-1.66,1.49-3.35,3.84-2.8a5.19,5.19,0,0,1,2.77,1.94.56.56,0,0,1,0,.63l-.72.94c-.15.19-.39.29-.55.1a5,5,0,0,0-1.9-1.51,1.2,1.2,0,0,0-1.49,1c-.13.88.33,1.61,1.44,2.5,1.32,1.07,2.81,2.54,2.46,4.94a3.2,3.2,0,0,1-3.93,2.9,4.88,4.88,0,0,1-3-2.21A.46.46,0,0,1,244.52,550.7Z"/><path class="cls-5" d="M257.75,542.48c0-.19.17-.33.33-.3l3.48.73c1.82.38,3.07,2.57,2.77,4.84s-2,3.9-3.85,3.52l-1.85-.39-.58,4.4a.3.3,0,0,1-.33.29l-1.36-.28a.36.36,0,0,1-.23-.42Zm2.9,6.47c.83.18,1.63-.52,1.78-1.62a1.87,1.87,0,0,0-1.29-2.14l-1.72-.36-.49,3.76Z"/><path class="cls-5" d="M266.16,544.23c0-.19.18-.33.33-.3l1.41.27a.36.36,0,0,1,.24.41l-.91,7.67c-.19,1.6.52,3,1.81,3.26s2.31-.84,2.5-2.42l.91-7.69c0-.19.16-.34.33-.31l1.41.27a.38.38,0,0,1,.24.41l-.93,7.81c-.34,2.85-2.41,4.82-4.75,4.37s-3.85-3.09-3.51-5.94Z"/><path class="cls-5" d="M276.79,546.22c0-.19.16-.34.32-.31l4.25.72c1.78.3,3.05,2.35,2.81,4.59a3.88,3.88,0,0,1-2.6,3.42l1.54,5.12c.07.26-.06.55-.31.5l-1.56-.26a.27.27,0,0,1-.22-.21l-1.46-5.32-1.64-.27-.51,4.79c0,.19-.17.34-.32.31l-1.37-.23a.36.36,0,0,1-.24-.41Zm3.77,6.38c.79.13,1.57-.62,1.68-1.67a1.86,1.86,0,0,0-1.28-2.08l-2.42-.4-.4,3.74Z"/><path class="cls-5" d="M286.5,547.82c0-.19.15-.34.31-.31l6.06.9a.34.34,0,0,1,.25.4l-.14,1.54c0,.19-.15.35-.32.32l-4.4-.66L288,553.1l3.68.55a.38.38,0,0,1,.25.4l-.15,1.57a.31.31,0,0,1-.32.31l-3.67-.55-.31,3.3,4.41.66c.16,0,.26.21.25.4l-.15,1.54c0,.19-.15.34-.31.32l-6.07-.91c-.16,0-.26-.21-.25-.4Z"/><path class="cls-5" d="M296,561.72l5.63-12.13a.25.25,0,0,1,.27-.17l.15,0c.15,0,.2.12.23.24L305.9,563c.07.26-.07.49-.3.46l-1.3-.16c-.22,0-.31-.16-.4-.43l-.57-2.13-4.46-.56-.89,2a.47.47,0,0,1-.47.33l-1.29-.17C296,562.22,295.89,562,296,561.72Zm6.76-3.22-1.17-4.34h0l-1.78,4Z"/><path class="cls-5" d="M308,550.49a.31.31,0,0,1,.31-.31l.37,0,5.69,9h0l.49-7.81c0-.19.15-.35.31-.33l1.38.14a.36.36,0,0,1,.26.39L316,564.33a.31.31,0,0,1-.31.31l-.36,0-5.69-9.33h0l-.52,8.14c0,.19-.14.35-.31.33l-1.36-.14a.36.36,0,0,1-.26-.39Z"/><path class="cls-5" d="M319.3,551.82c0-.18.14-.34.29-.33l3.54.28c2.89.22,5.11,3.38,4.93,7s-2.69,6.46-5.58,6.23l-3.54-.28a.34.34,0,0,1-.26-.38Zm3.12,10.88c1.94.15,3.46-1.59,3.58-4.07s-1.21-4.43-3.16-4.59l-1.7-.13-.43,8.65Z"/><path class="cls-5" d="M333.41,552.84c0-.19.13-.35.3-.34l6.1.31a.34.34,0,0,1,.27.38l-.05,1.55a.33.33,0,0,1-.3.35l-4.43-.23-.12,3.56,3.7.19a.37.37,0,0,1,.28.38l-.05,1.55a.35.35,0,0,1-.3.35l-3.7-.19-.15,4.79a.35.35,0,0,1-.3.35l-1.38-.07a.34.34,0,0,1-.27-.38Z"/><path class="cls-5" d="M339.67,565.61,344.6,553c0-.11.13-.21.26-.2H345a.28.28,0,0,1,.25.22L349.62,566c.08.24,0,.49-.27.48l-1.31,0c-.22,0-.32-.13-.42-.4l-.69-2.07-4.49-.15-.78,2a.46.46,0,0,1-.44.37l-1.3,0C339.69,566.11,339.58,565.86,339.67,565.61Zm6.56-3.82-1.41-4.23h0l-1.56,4.13Z"/><path class="cls-5" d="M351.05,553.52a.33.33,0,0,1,.29-.36l1.38,0c.15,0,.28.18.28.37l-.1,10.64,3.83.06a.33.33,0,0,1,.28.36v1.55c0,.2-.13.36-.29.36l-5.49-.08a.32.32,0,0,1-.28-.36Z"/><path class="cls-5" d="M362.93,553c3,0,5.41,3,5.43,6.81S366,566.68,363,566.7s-5.4-3-5.41-6.78S359.93,553.06,362.93,553Zm.05,11.19c1.89,0,3.44-2,3.43-4.36s-1.58-4.38-3.47-4.37-3.42,2-3.41,4.41S361.09,564.25,363,564.23Z"/><path class="cls-5" d="M370.05,553.49a.35.35,0,0,1,.28-.37l4.29-.13c1.8-.06,3.31,1.72,3.35,4a4.28,4.28,0,0,1-2.15,3.9l2.15,4.75c.11.25,0,.55-.24.56l-1.58.05a.25.25,0,0,1-.24-.16l-2.09-5-1.67,0,.1,4.84c0,.19-.13.37-.28.37l-1.38,0c-.17,0-.29-.16-.29-.35Zm4.52,5.56a1.81,1.81,0,0,0,1.45-2,1.7,1.7,0,0,0-1.52-1.8l-2.44.08.07,3.77Z"/><path class="cls-5" d="M379.84,553.16a.34.34,0,0,1,.27-.38l6.1-.32c.17,0,.29.15.3.34l.05,1.56a.33.33,0,0,1-.27.37l-4.44.24.12,3.56,3.7-.2a.35.35,0,0,1,.3.35l0,1.55c0,.19-.12.37-.27.38l-3.71.19.16,4.8a.35.35,0,0,1-.27.38l-1.38.07c-.16,0-.29-.16-.3-.35Z"/><path class="cls-5" d="M387.9,552.72a.35.35,0,0,1,.27-.38l1.42-.11c.17,0,.29.15.3.34l.36,7.75c.08,1.61,1,2.81,2.31,2.71s2.13-1.43,2.05-3l-.36-7.76a.33.33,0,0,1,.27-.38l1.42-.11c.15,0,.29.15.3.34l.37,7.88c.13,2.87-1.57,5.34-3.94,5.52s-4.27-2-4.4-4.9Z"/><path class="cls-5" d="M398.62,551.88c0-.19.1-.38.26-.39l1.38-.13c.15,0,.29.14.31.33l.64,10.61,3.81-.37a.32.32,0,0,1,.31.33l.09,1.55a.35.35,0,0,1-.26.39l-5.48.53c-.16,0-.29-.14-.3-.33Z"/><path class="cls-5" d="M407.21,561c.64-.07,1.55.44,1.68,2.31a5.44,5.44,0,0,1-1.42,4.27c-.13.13-.23.16-.38,0l-.24-.28a.38.38,0,0,1,0-.51,4.24,4.24,0,0,0,1-2.89,1.43,1.43,0,0,1-.56.21,1.36,1.36,0,0,1-1.32-1.4A1.53,1.53,0,0,1,407.21,561Z"/><path class="cls-5" d="M413,550.32a.35.35,0,0,1,.25-.4l1.38-.18c.14,0,.29.13.31.32l.87,10.59,3.81-.5c.16,0,.29.13.31.32l.13,1.55a.34.34,0,0,1-.26.39l-5.46.73c-.16,0-.3-.14-.31-.33Z"/><path class="cls-5" d="M420.37,549.32a.36.36,0,0,1,.25-.4l1.38-.2a.33.33,0,0,1,.32.31l1.15,12.48a.37.37,0,0,1-.25.4l-1.38.2c-.15,0-.3-.13-.32-.32Z"/><path class="cls-5" d="M424.86,548.74a.46.46,0,0,1,.31-.51l1.31-.21c.2,0,.38.14.41.39l.53,5.08,3.19-6a.38.38,0,0,1,.26-.23l1.49-.25c.28,0,.47.32.31.64l-3.31,6.18,4.82,5.61c.17.22.1.65-.2.7l-1.62.27a.25.25,0,0,1-.28-.09l-4.51-5.41.59,5.74a.45.45,0,0,1-.31.51l-1.31.22c-.21,0-.38-.15-.4-.4Z"/><path class="cls-5" d="M434.31,547.06a.36.36,0,0,1,.24-.41l6-1.15c.16,0,.3.11.32.3l.18,1.54a.34.34,0,0,1-.24.41l-4.39.83.37,3.08,3.66-.7a.33.33,0,0,1,.33.31l.18,1.56a.36.36,0,0,1-.24.41l-3.66.69.39,3.28,4.39-.83c.16,0,.3.12.32.3l.18,1.54a.35.35,0,0,1-.23.41l-6,1.15c-.16,0-.3-.12-.32-.3Z"/><path class="cls-5" d="M445.93,544.56a.36.36,0,0,1,.24-.4l.37-.08,7.31,6.87h0l-1.09-7.71a.37.37,0,0,1,.23-.42l1.36-.31a.31.31,0,0,1,.33.29l1.78,12.58a.36.36,0,0,1-.23.4l-.36.08-7.38-7.18h0l1.14,8a.36.36,0,0,1-.24.41l-1.34.31a.31.31,0,0,1-.33-.29Z"/><path class="cls-5" d="M461.52,540.53c2.94-.76,5.77,1.63,6.37,5.35s-1.28,7.28-4.22,8-5.75-1.6-6.35-5.31S458.58,541.28,461.52,540.53Zm1.76,11c1.85-.47,3.08-2.78,2.7-5.12s-2.22-3.9-4.07-3.43-3.05,2.82-2.68,5.16S461.43,552,463.28,551.49Z"/><path class="cls-5" d="M476,536.46c2.92-.88,5.81,1.39,6.5,5.08s-1.08,7.33-4,8.21-5.79-1.35-6.48-5S473.12,537.34,476,536.46Zm2,10.89c1.84-.55,3-2.91,2.56-5.24s-2.32-3.8-4.16-3.25-3,2.95-2.54,5.27S476.25,547.9,478.09,547.35Z"/><path class="cls-5" d="M484.69,536.28l-2.22.74a.29.29,0,0,1-.35-.26l-.31-1.51a.38.38,0,0,1,.21-.44l6.34-2.09a.29.29,0,0,1,.35.26l.3,1.5a.37.37,0,0,1-.2.44l-2.22.74,2.12,10.3a.38.38,0,0,1-.2.44l-1.35.44a.3.3,0,0,1-.35-.26Z"/><path class="cls-5" d="M489.93,532.56a.39.39,0,0,1,.2-.45l1.34-.48c.16-.06.31.06.35.25l1.09,4.83,4.71-1.69-1.09-4.84a.38.38,0,0,1,.19-.44l1.33-.48a.29.29,0,0,1,.35.25l2.72,12.09a.39.39,0,0,1-.19.44l-1.33.48c-.16.06-.31-.07-.35-.25l-1.14-5-4.7,1.69,1.13,5a.39.39,0,0,1-.2.45l-1.34.48a.29.29,0,0,1-.35-.25Z"/><path class="cls-5" d="M500.75,528.61a.39.39,0,0,1,.19-.45l5.83-2.28a.28.28,0,0,1,.36.23l.36,1.49a.38.38,0,0,1-.19.45l-4.24,1.66.73,3,3.54-1.39c.14-.06.31.06.36.24l.36,1.5a.38.38,0,0,1-.18.45l-3.54,1.39.77,3.17,4.25-1.66a.28.28,0,0,1,.35.24l.37,1.48a.39.39,0,0,1-.19.45l-5.83,2.29a.28.28,0,0,1-.36-.24Z"/><path class="cls-5" d="M508.91,525.39a.39.39,0,0,1,.18-.46l4.07-1.71c1.71-.72,3.56.42,4.13,2.56a4.91,4.91,0,0,1-1.15,4.53l3.15,3.75a.39.39,0,0,1-.1.62l-1.5.63a.22.22,0,0,1-.27-.06l-3.15-4-1.58.67,1.21,4.59a.4.4,0,0,1-.18.46l-1.31.55c-.15.07-.31,0-.36-.23Zm5.61,3.64a2.12,2.12,0,0,0,.93-2.43,1.45,1.45,0,0,0-1.87-1.16l-2.33,1,1,3.59Z"/><path class="cls-1" d="M256,572.29a.25.25,0,0,1,.27-.29l1.1.25a.18.18,0,0,1,.13.17l.24,5.53h.05l3.37-4.73a.2.2,0,0,1,.2-.1l1.25.28c.15,0,.18.21.08.35L257,581.33a.2.2,0,0,1-.21.1l-.1,0c-.09,0-.12-.1-.13-.18Z"/><path class="cls-1" d="M259.93,581.65l5.53-7.67a.21.21,0,0,1,.22-.1l.1,0a.2.2,0,0,1,.13.17l.71,8.94a.24.24,0,0,1-.26.28l-1-.19a.28.28,0,0,1-.25-.32l-.06-1.46-2.78-.56-.87,1.27a.36.36,0,0,1-.39.18l-1-.21C259.85,582,259.82,581.8,259.93,581.65Zm5-1.77-.09-2.86h0l-1.65,2.52Z"/><path class="cls-1" d="M272.93,575.29a3.12,3.12,0,0,1,2.15,1.64.3.3,0,0,1-.1.35l-.7.54a.23.23,0,0,1-.37-.07,2,2,0,0,0-1.29-.89c-1.34-.25-2.73,1.11-3,2.92-.2,1.34.27,2.61,1.34,2.81a2.09,2.09,0,0,0,1.64-.46c.17-.11.29-.06.36.08l.46.93a.35.35,0,0,1-.11.34,3.28,3.28,0,0,1-2.7.75c-1.93-.36-2.93-2.35-2.61-4.53C268.44,576.72,270.61,574.86,272.93,575.29Z"/><path class="cls-1" d="M276.55,576.32a.26.26,0,0,1,.26-.2l1.11.19c.11,0,.16.14.13.27l-1.33,5.08c-.28,1.06.06,2,.84,2.1s1.57-.58,1.84-1.63l1.34-5.1a.25.25,0,0,1,.26-.2l1.11.19a.21.21,0,0,1,.13.27l-1.36,5.17c-.49,1.89-2,3.24-3.74,2.94-1.56-.27-2.44-2-1.95-3.91Z"/><path class="cls-1" d="M283.89,577.55a.24.24,0,0,1,.25-.21l1.11.17c.11,0,.16.14.14.27l-1.27,5.1c-.26,1.06.09,2,.87,2.08s1.56-.61,1.82-1.66l1.27-5.11a.24.24,0,0,1,.25-.21l1.11.17c.1,0,.17.14.14.27l-1.29,5.19c-.46,1.9-1.94,3.27-3.7,3-1.56-.24-2.46-2-2-3.87Z"/><path class="cls-1" d="M292.09,578.58a.22.22,0,0,1,.23-.17l.16,0a.16.16,0,0,1,.14.15l.93,6h0l3.67-5.37a.2.2,0,0,1,.2-.1l.17,0a.21.21,0,0,1,.14.22l-.8,8.59c0,.17-.13.28-.26.26l-1.08-.15a.17.17,0,0,1-.14-.21l.56-4.57h0l-2.85,4.44a.19.19,0,0,1-.2.11l-.18,0c-.09,0-.13-.08-.15-.16l-.65-4.92h0l-1.56,4.44a.21.21,0,0,1-.23.16l-1.07-.14c-.12,0-.19-.15-.13-.32Z"/><path class="cls-1" d="M302.76,580.12a.25.25,0,0,1,.25-.22l2.41.27c1.12.13,1.84,1.43,1.72,2.77-.16,1.87-1.47,3-2.92,2.85l-1.15-.13-.63,3a.26.26,0,0,1-.25.22l-1.08-.12a.2.2,0,0,1-.14-.26Zm1.69,4.12c.55.06,1.14-.55,1.21-1.38,0-.61-.23-1.1-.67-1.15l-1.05-.12-.54,2.53Z"/><path class="cls-1" d="M306,588.93l4.89-8.19a.21.21,0,0,1,.21-.12h.1c.08,0,.13.07.15.15l1.42,8.82a.25.25,0,0,1-.24.31l-1-.1c-.16,0-.25-.09-.27-.28l-.17-1.45-2.81-.28-.76,1.36a.4.4,0,0,1-.38.22l-1-.1C305.9,589.26,305.86,589.09,306,588.93Zm4.84-2.27-.32-2.84h0L309,586.49Z"/><path class="cls-1" d="M318.38,581.27a3,3,0,0,1,2.27,1.41.3.3,0,0,1-.07.36l-.66.61a.23.23,0,0,1-.37,0,2,2,0,0,0-1.36-.76c-1.35-.11-2.63,1.38-2.75,3.21-.09,1.36.48,2.58,1.56,2.67a2.16,2.16,0,0,0,1.6-.62c.16-.13.28-.1.36,0l.54.88a.33.33,0,0,1-.08.34,3.36,3.36,0,0,1-2.64,1c-1.95-.16-3.1-2-3-4.25C314,583.15,316,581.07,318.38,581.27Z"/><path class="cls-1" d="M322.18,582a.31.31,0,0,1,.3-.29l1.06.07a.26.26,0,0,1,.19.33l-.62,3.43,2.85-3.36a.5.5,0,0,1,.47-.2l1.12.08c.2,0,.25.25.1.43l-3.3,3.72,2,4.39a.27.27,0,0,1-.25.38l-1-.07a.39.39,0,0,1-.4-.28l-1.8-4.11-.7,3.88a.31.31,0,0,1-.28.29l-1.07-.07c-.14,0-.22-.16-.19-.33Z"/><path class="cls-1" d="M329,582.38c0-.12.13-.24.23-.23l4.18.23c.12,0,.18.13.16.26l-.18,1a.25.25,0,0,1-.24.23l-2.89-.16-.35,2.09,2.4.13c.1,0,.17.13.16.26l-.19,1a.27.27,0,0,1-.23.24l-2.4-.14-.38,2.23,2.91.16c.11,0,.16.13.15.26l-.17,1a.26.26,0,0,1-.24.23l-4.19-.23c-.11,0-.17-.12-.14-.25Z"/><path class="cls-1" d="M335,582.7a.26.26,0,0,1,.22-.24l2.45.1c1.78.07,3,1.94,2.94,4-.08,2.79-1.95,5-4.33,4.92l-2.45-.1c-.1,0-.17-.12-.14-.25Zm1.41,7.24c1.38,0,2.57-1.38,2.63-3.3,0-1.4-.63-2.5-1.72-2.54l-1.06,0-.9,5.83Z"/><path class="cls-1" d="M343.89,589l.12-.85a.23.23,0,0,1,.23-.24l2.31,0c.11,0,.17.11.15.25l-.11.86a.26.26,0,0,1-.23.23l-2.31-.05C343.93,589.28,343.88,589.17,343.89,589Z"/><path class="cls-1" d="M351.71,585.46l-1,.24a.15.15,0,0,1-.19-.17l.06-.7a.42.42,0,0,1,.15-.3l1.62-1.4h.84c.1,0,.17.12.15.25l-1.05,8.24a.27.27,0,0,1-.22.24h-1c-.11,0-.18-.12-.17-.25Z"/><path class="cls-1" d="M354.45,588.59c0-3.37,1.22-5.6,3.21-5.61,1.31,0,2.12,1.32,2.13,3.39,0,3.37-1.12,5.61-3.21,5.62C355.27,592,354.46,590.66,354.45,588.59Zm3.84-2.17c0-1.17-.3-1.93-.82-1.92-1,0-1.53,1.77-1.52,4,0,1.18.28,1.94.82,1.93C357.72,590.47,358.3,588.71,358.29,586.42Z"/><path class="cls-1" d="M361,588.54c-.06-3.37,1.16-5.61,3.15-5.65,1.31,0,2.14,1.29,2.17,3.36.06,3.36-1.06,5.62-3.15,5.67C361.87,591.94,361,590.61,361,588.54Zm3.82-2.22c0-1.17-.32-1.92-.84-1.91-.95,0-1.51,1.79-1.48,4.06,0,1.18.31,1.94.84,1.93C364.3,590.38,364.86,588.6,364.83,586.32Z"/><path class="cls-1" d="M367.45,584.53c0-1.08.57-2,1.49-2a1.35,1.35,0,0,1,1.28,1.45,1.82,1.82,0,0,1-1.48,2A1.36,1.36,0,0,1,367.45,584.53Zm4.47-1.88a.22.22,0,0,1,.19-.13l.59,0c.14,0,.22.17.13.34l-4.34,8.69c0,.05-.09.13-.17.13l-.58,0c-.16,0-.23-.17-.15-.34Zm-2.69,1.49c0-.28-.14-.52-.35-.51s-.47.34-.46.73.15.53.35.52S369.24,584.53,369.23,584.14Zm2.55,4.05a1.37,1.37,0,0,1,1.28,1.46,1.81,1.81,0,0,1-1.49,2,1.36,1.36,0,0,1-1.29-1.46A1.77,1.77,0,0,1,371.78,588.19Zm-.17,2.37c.24,0,.46-.35.45-.73s-.14-.53-.34-.52-.48.34-.47.74S371.4,590.57,371.61,590.56Z"/><path class="cls-1" d="M377.49,582.51a.28.28,0,0,1,.22-.26l2.42-.14c1.13-.07,2,1.1,2.07,2.45a2.9,2.9,0,0,1-2.51,3.31l-1.16.07-.23,3a.27.27,0,0,1-.22.25l-1.08.07a.19.19,0,0,1-.17-.24Zm2.22,3.79c.55,0,1.05-.74,1-1.57,0-.61-.38-1.05-.82-1l-1.05.07-.2,2.59Z"/><path class="cls-1" d="M383.47,582.15a.28.28,0,0,1,.22-.26l1.11-.08c.12,0,.19.1.19.23l-.36,5.29c-.07,1.1.43,1.9,1.22,1.84s1.42-.94,1.5-2l.35-5.3a.25.25,0,0,1,.21-.26l1.12-.09a.21.21,0,0,1,.18.23l-.36,5.38c-.12,2-1.33,3.64-3.1,3.77-1.57.12-2.76-1.37-2.64-3.34Z"/><path class="cls-1" d="M391,581.55a.27.27,0,0,1,.19-.27l3-.27c1.1-.11,2,.89,2.08,2.21a3,3,0,0,1-1.58,3.13l1.16,3.2c.06.16,0,.33-.17.35l-1.07.1a.24.24,0,0,1-.27-.19l-1.06-3.22-1.07.1L392,590c0,.13-.1.26-.2.26l-1.09.11c-.12,0-.19-.1-.18-.23Zm2.69,3.62a1.37,1.37,0,0,0,1.08-1.6c0-.58-.39-1-.81-1l-1.55.15-.13,2.58Z"/><path class="cls-1" d="M397.9,580.88a.27.27,0,0,1,.19-.27l4.18-.45c.11,0,.19.09.19.22l0,1.06a.26.26,0,0,1-.2.27l-2.89.32-.08,2.12,2.39-.26c.1,0,.19.1.19.23l-.05,1.07a.27.27,0,0,1-.2.27l-2.39.26-.1,2.27,2.9-.31c.12,0,.18.09.18.22l0,1.07a.27.27,0,0,1-.21.26l-4.17.46c-.12,0-.19-.1-.18-.23Z"/><path class="cls-1" d="M409.45,579.11a2.81,2.81,0,0,1,2.46.9.29.29,0,0,1,0,.36l-.54.75a.24.24,0,0,1-.37,0,1.87,1.87,0,0,0-1.46-.46c-1.35.18-2.35,1.92-2.17,3.75.14,1.35.91,2.42,2,2.28a2.28,2.28,0,0,0,1.46-1c.13-.16.26-.15.36,0l.67.75a.32.32,0,0,1,0,.35,3.54,3.54,0,0,1-2.41,1.58c-2,.26-3.39-1.35-3.62-3.54C405.48,581.89,407.12,579.42,409.45,579.11Z"/><path class="cls-1" d="M416.3,578.11c1.82-.28,3.37,1.33,3.63,3.49.34,2.87-1.21,5.47-3.57,5.83-1.83.28-3.37-1.35-3.63-3.46C412.39,581.1,413.91,578.48,416.3,578.11Zm2.14,3.93c-.16-1.37-1-2.42-2.11-2.25-1.29.2-2.33,1.92-2.11,3.73.17,1.38,1,2.39,2.1,2.23C417.62,585.55,418.66,583.86,418.44,582Z"/><path class="cls-1" d="M421.31,577.66a.28.28,0,0,1,.18-.28l4.15-.71c.11,0,.19.08.2.21v1.06a.27.27,0,0,1-.19.28l-2.86.5v2.44l2.39-.41a.18.18,0,0,1,.19.21l0,1.07a.29.29,0,0,1-.19.28l-2.39.41,0,3.28c0,.13-.09.27-.19.28l-1.08.19c-.11,0-.19-.08-.19-.21Z"/><path class="cls-1" d="M427,576.65a.26.26,0,0,1,.18-.28l4.13-.79c.11,0,.19.08.2.21l0,1.06a.27.27,0,0,1-.19.29l-2.86.54.05,2.44,2.38-.45c.1,0,.2.08.2.21l0,1.06a.3.3,0,0,1-.19.29l-2.38.45.08,3.28a.29.29,0,0,1-.19.28l-1.07.2c-.11,0-.19-.08-.19-.21Z"/><path class="cls-1" d="M432.75,575.54a.28.28,0,0,1,.17-.29l4.12-.85c.12,0,.2.07.21.2l0,1.06a.27.27,0,0,1-.18.29l-2.85.59.08,2.13,2.36-.49c.1,0,.19.08.2.2l0,1.08a.29.29,0,0,1-.18.29l-2.37.49.08,2.27,2.87-.6c.11,0,.18.08.19.21l.05,1.06a.3.3,0,0,1-.19.29l-4.12.85c-.11,0-.2-.07-.19-.2Z"/><path class="cls-1" d="M438.68,574.27a.27.27,0,0,1,.17-.28l4.11-.93c.11,0,.2.07.21.2l.05,1.06a.27.27,0,0,1-.18.29l-2.84.65.1,2.12,2.36-.53c.1,0,.2.07.21.2l.05,1.08a.27.27,0,0,1-.18.28l-2.36.54.11,2.27,2.86-.65c.11,0,.18.08.2.2l.06,1.06a.27.27,0,0,1-.19.29l-4.1.93c-.12,0-.2-.07-.2-.2Z"/><path class="cls-5" d="M258.7,614.34a.39.39,0,0,1,.43-.34l.49.08,7,11h0l1.17-9.08a.38.38,0,0,1,.43-.35L270,616a.42.42,0,0,1,.32.47l-1.91,14.79a.37.37,0,0,1-.42.33l-.48-.07-7-11.4h0l-1.22,9.45a.39.39,0,0,1-.43.36l-1.8-.29a.43.43,0,0,1-.32-.48Z"/><path class="cls-5" d="M273.68,616.92a.39.39,0,0,1,.42-.37l8.08,1.14a.43.43,0,0,1,.33.47l-.21,1.8a.39.39,0,0,1-.42.37l-5.88-.82-.41,3.61,4.9.68a.43.43,0,0,1,.33.47l-.2,1.83a.4.4,0,0,1-.43.37l-4.9-.69-.44,3.85,5.87.83a.41.41,0,0,1,.33.47l-.2,1.8a.4.4,0,0,1-.43.37L272.35,632a.42.42,0,0,1-.33-.47Z"/><path class="cls-5" d="M286.79,621l-3-.38a.41.41,0,0,1-.33-.47l.18-1.81a.39.39,0,0,1,.42-.37L292.7,619a.41.41,0,0,1,.34.46l-.19,1.81a.39.39,0,0,1-.42.37l-3-.38-1.25,12.37a.42.42,0,0,1-.43.38l-1.84-.23a.44.44,0,0,1-.34-.47Z"/><path class="cls-5" d="M297.87,620.18c-.05-.31.13-.52.41-.49l1.83.18a.44.44,0,0,1,.33.35l1.36,9h.08l3.9-8.79a.32.32,0,0,1,.36-.21l.36,0a.32.32,0,0,1,.32.27l2.45,9.43h.08l2.74-8.61a.41.41,0,0,1,.38-.28l1.84.18a.39.39,0,0,1,.31.57l-5,14.48a.39.39,0,0,1-.39.27l-.31,0a.36.36,0,0,1-.32-.27l-2.76-10.37h-.1l-4.33,9.66a.33.33,0,0,1-.36.21l-.32,0a.4.4,0,0,1-.33-.35Z"/><path class="cls-5" d="M318.46,624.27l-3-.24a.42.42,0,0,1-.36-.46l.12-1.81a.4.4,0,0,1,.41-.39l8.71.7a.4.4,0,0,1,.36.44l-.12,1.82a.4.4,0,0,1-.41.39l-3.05-.24-.8,12.42a.42.42,0,0,1-.41.39l-1.86-.15a.44.44,0,0,1-.35-.45Z"/><path class="cls-5" d="M331.64,627l-1.78.31a.33.33,0,0,1-.38-.31l-.07-1.09a.5.5,0,0,1,.12-.4l3-2.51,1.4.09a.4.4,0,0,1,.34.44l-.69,14.23a.4.4,0,0,1-.38.4l-1.71-.1a.4.4,0,0,1-.36-.44Z"/><path class="cls-5" d="M336.79,630.85c.17-4.86,2.11-7.69,5.31-7.55s4.93,3.13,4.76,8-2.11,7.68-5.31,7.54S336.62,635.71,336.79,630.85Zm7.45.32c.12-3.28-.69-5.18-2.23-5.25s-2.49,1.76-2.6,5,.7,5.19,2.24,5.26S344.13,634.48,344.24,631.17Z"/><path class="cls-5" d="M360.25,623.34c4,0,7.17,3.63,7.14,8.07s-3.25,8-7.25,7.91-7.16-3.59-7.13-8S356.25,623.3,360.25,623.34Zm-.09,13.1a4.87,4.87,0,0,0,4.63-5.05,4.62,4.62,0,1,0-9.18-.08A4.88,4.88,0,0,0,360.16,636.44Z"/><path class="cls-5" d="M368.43,638.3l5.77-12.07v-.08l-5,.1a.42.42,0,0,1-.39-.42l0-1.84a.41.41,0,0,1,.37-.43l8.36-.17a.42.42,0,0,1,.39.41v.29l-5.69,12.22v.05l5.11-.1a.39.39,0,0,1,.38.41l0,1.84a.39.39,0,0,1-.37.43l-8.54.18a.42.42,0,0,1-.39-.42Z"/><path class="cls-5" d="M383.58,631.7c-.3-7,2.31-8.74,4.58-9a.32.32,0,0,1,.39.31l.12,1.46a.38.38,0,0,1-.22.42c-1.93.68-2.57,3-2.41,6.68s1,5.9,3,6.38a.36.36,0,0,1,.26.4v1.45a.36.36,0,0,1-.36.37C386.63,640.12,383.88,638.66,383.58,631.7Z"/><path class="cls-5" d="M390.35,637.42c1.21-1.87,3.5-5.7,4.71-7.78a4.46,4.46,0,0,0,.86-2.53,1.94,1.94,0,0,0-2.24-1.86,3.26,3.26,0,0,0-2.15,1.48.34.34,0,0,1-.54,0l-1-1a.47.47,0,0,1,0-.57,5.52,5.52,0,0,1,3.79-2.47,4.15,4.15,0,0,1,4.73,4.06,6.36,6.36,0,0,1-1.11,3.69c-.78,1.42-2.16,3.62-3.13,5.19l4.31-.34a.41.41,0,0,1,.41.39l.1,1.53a.42.42,0,0,1-.36.45l-7.86.61a.4.4,0,0,1-.41-.39Z"/><path class="cls-5" d="M402.81,629.53v-.07a4.08,4.08,0,0,1-2.36-3.19,4.16,4.16,0,0,1,3.95-4.53c2.49-.28,4.54,1.1,4.76,3.55a4.39,4.39,0,0,1-1.73,3.63V629a4.41,4.41,0,0,1,2.75,3.42c.22,2.4-1.45,4.44-4.37,4.77s-4.84-1.31-5.06-3.71C400.56,631.56,402.28,629.9,402.81,629.53Zm3.81-3.85a1.81,1.81,0,0,0-2-1.67,1.88,1.88,0,0,0-1.6,2.08,2,2,0,0,0,2,1.9A2.23,2.23,0,0,0,406.62,625.68Zm-1,9.26a2.08,2.08,0,0,0,1.89-2.26,2.46,2.46,0,0,0-2.29-2.11,2.59,2.59,0,0,0-1.85,2.57A2,2,0,0,0,405.63,634.94Z"/><path class="cls-5" d="M412.19,633.9l.88-1.24a.32.32,0,0,1,.51-.08,3.92,3.92,0,0,0,2.59.81A2.19,2.19,0,0,0,418,631c-.15-1.15-1.23-2-3-1.76l-1.11.18a.38.38,0,0,1-.43-.38l-.18-1.39c0-.29.09-.46.32-.5l1.11-.17c1.63-.25,2.34-1.28,2.2-2.41a1.9,1.9,0,0,0-2.17-1.72,2.62,2.62,0,0,0-1.87,1.37.34.34,0,0,1-.53.1l-1.1-.86a.42.42,0,0,1-.07-.57,5.51,5.51,0,0,1,3.48-2.51,3.89,3.89,0,0,1,4.72,3.36,4.18,4.18,0,0,1-1.6,3.75v.07a3.94,3.94,0,0,1,2.85,3.21,4.41,4.41,0,0,1-4,5,4.84,4.84,0,0,1-4.37-1.31A.47.47,0,0,1,412.19,633.9Z"/><path class="cls-5" d="M427.69,617.5a6.93,6.93,0,0,1,5.15,1,.45.45,0,0,1,.12.6l-1,1.68a.32.32,0,0,1-.51.11,4.18,4.18,0,0,0-3.18-.62c-2.46.53-4,3.28-3.52,6a4.6,4.6,0,0,0,5.29,4,6.13,6.13,0,0,0,2.25-1l-.33-1.86-1.57.34a.36.36,0,0,1-.44-.31l-.3-1.72a.41.41,0,0,1,.3-.5l3.77-.81a.38.38,0,0,1,.42.34l1,5.58a.45.45,0,0,1-.1.38,9.83,9.83,0,0,1-4.62,2.47c-3.91.84-7.65-1.93-8.41-6.29S423.78,618.35,427.69,617.5Z"/><path class="cls-5" d="M437.68,630.76c1.77-1.09,2-3.47,1.17-7.06s-2-5.58-4.06-5.61c-.15,0-.31-.14-.33-.32l-.26-1.44a.34.34,0,0,1,.29-.42c2.24-.5,5.2.37,6.74,7.12s-.7,9-2.87,9.83a.33.33,0,0,1-.44-.24l-.38-1.39A.38.38,0,0,1,437.68,630.76Z"/><polygon class="cls-3" points="442 306 446 306 461 289 449 289 442 306"/><polygon class="cls-5" points="476.51 330 494.59 319 495 359 480.13 363 474.1 350.9 476.51 330"/><path class="cls-3" d="M490.41,333.24a2.33,2.33,0,0,1,1.62-1.08c.44-.09.25-.76-.19-.68a3,3,0,0,0-2,1.41c-.24.38.37.74.61.35Z"/><path class="cls-3" d="M487.21,333.7a3,3,0,0,0-3.42.09c-.37.26,0,.87.35.6a2.36,2.36,0,0,1,2.71-.08c.39.24.74-.37.36-.61Z"/><path class="cls-3" d="M491.09,334.27l-.18-.24a.38.38,0,0,0-.35-.09c-.64.19-.35,1.15.26.9.42-.17.24-.85-.18-.68l.14,0,.1.25v-.08l-.1.25h0l-.34-.09.19.24c.28.35.77-.15.49-.5Z"/><path class="cls-3" d="M485.7,336.49a.58.58,0,0,0-.63-.74.55.55,0,0,0-.3.91c.66.84,1.7-.76.56-1-.44-.09-.63.59-.19.68l.2,0-.21-.17-.1.08c-.14.43.53.61.67.18Z"/><path class="cls-3" d="M484,336.8a1.9,1.9,0,0,1,1.87-.89c.45.06.44-.65,0-.7a2.54,2.54,0,0,0-2.47,1.24.35.35,0,0,0,.6.35Z"/><path class="cls-3" d="M490.41,334.54a1.62,1.62,0,0,1,1.27-.21c.44.1.62-.58.18-.68a2.35,2.35,0,0,0-1.81.28c-.38.24,0,.85.36.61Z"/><path class="cls-3" d="M488.3,335.88a8.23,8.23,0,0,1,0,2.16c0,.45.66.45.7,0a8.42,8.42,0,0,0-.07-2.35c-.07-.44-.74-.26-.67.19Z"/><path class="cls-3" d="M488.59,339.3a.37.37,0,0,1-.19.52c-.4.21,0,.82.36.61a1.06,1.06,0,0,0,.51-1.32c-.16-.42-.84-.24-.68.19Z"/><path class="cls-3" d="M487,340.55l.09.08c.32.32.81-.18.49-.5l-.08-.08a.35.35,0,0,0-.5.5Z"/><path class="cls-3" d="M482.22,337.13c-1.58-.57-2.61,1.39-1.94,2.72.36.71.89.51,1.35.94,1.2,1.11,1,4.38,1,5.87a.35.35,0,0,0,.7,0,21.37,21.37,0,0,0-.72-5.63,2.18,2.18,0,0,0-.39-.81c-.05-.07-.22-.05-.29-.12-.3,0-.51-.21-.64-.58-.94-.62-.7-1.19.71-1.71.43.16.61-.52.19-.68Z"/><path class="cls-3" d="M482.89,337.06a7.69,7.69,0,0,1,3.2-8.25c.87-.56,3-1.43,4-1.13,2.21.63,2.56,4.13,2.68,5.8.14,1.9-1.15,17.54-5.77,13.34-.33-.3-.83.2-.5.5,6.46,5.87,8.22-15.3,6.18-18.8-1.44-2.47-4.74-1.69-7-.32-3.16,1.95-4.23,5.54-3.52,9,.09.45.77.26.68-.18Z"/><path class="cls-3" d="M481.55,339c-.21.94,0,1.87-.11,2.81,0,.18-.09.72-.26.8-.42.21-.45-.46-.46-.68a4,4,0,0,1,.27-1.68c.15-.42-.53-.61-.68-.18-.25.71-.78,3.69.74,3.48.6-.08.93-.85,1-1.35.23-1-.08-2,.13-3,.1-.44-.58-.63-.67-.19Z"/><path class="cls-3" d="M494.34,337.79a.79.79,0,0,0-.11-.65.35.35,0,0,0-.64.08c-.26.94-.31,4.12,1.38,3.7.44-.1.26-.78-.18-.67s-.63-1.18-.66-1.43a3.73,3.73,0,0,1,.14-1.41l-.65.08.05.12c-.08.44.59.63.67.18Z"/><path class="cls-3" d="M481.72,350.79c.93.2,7,.65,6.26-1.47-.38-1.13-2.68-1-3.54-.85s-2.62.24-3.06,1.11c-.27.53.14,1.05.26,1.56a9.83,9.83,0,0,0,.38,2.22c.47,1,1.77,1.19,2.79,1.15a3.57,3.57,0,0,0,2.85-1.32,3.48,3.48,0,0,0,.15-3.46c-.26-.37-.86,0-.61.35a2.78,2.78,0,0,1-.31,2.94,3.11,3.11,0,0,1-2.25.79,2,2,0,0,1-2-.89,4.16,4.16,0,0,1-.24-1.31,3.29,3.29,0,0,1,0-1.56c.23-.57.36-.5.95-.65a11.3,11.3,0,0,1,1.16-.22,6.51,6.51,0,0,1,1.17-.08c.47,0,1.12-.07,1,.5-.21,1.22-3.88.71-4.77.51-.44-.1-.63.58-.19.68Z"/><path class="cls-3" d="M476.79,352.83a3.61,3.61,0,0,1,4.65-2l-.15-.59-.15.19c-.28.36.21.86.49.5l.15-.19a.36.36,0,0,0-.15-.59,4.31,4.31,0,0,0-5.52,2.5c-.18.42.5.6.68.19Z"/><path class="cls-3" d="M475.77,352.94a3.69,3.69,0,0,0,1.74,2.66,1.67,1.67,0,0,0,.95.2c.56-.1.56-.53,1-.77s.47.15.77.46a1.23,1.23,0,0,0,1,.37c1,0,1.48-1,1.81-1.84.12-.27-.2-.46-.43-.43l-.53.08c-.44.07-.25.75.19.68l.53-.08-.44-.43a.77.77,0,0,1-1,.79q-.74.5-.81-.15c-.06-.05-.12-.2-.19-.27a.77.77,0,0,0-.71-.25c-.35.08-.48.51-.74.69-.17.37-.45.4-.86.1a1,1,0,0,1-1.08-.67,3.66,3.66,0,0,1-.48-1.33c-.08-.45-.76-.26-.68.19Z"/><path class="cls-3" d="M481.65,351.61a2.35,2.35,0,0,0-2-.23c-.42.15-.24.83.19.68a1.68,1.68,0,0,1,1.51.16c.38.24.74-.37.35-.61Z"/><path class="cls-3" d="M482.15,353a2.24,2.24,0,0,0-1.87-.29.35.35,0,0,0,.19.68,1.57,1.57,0,0,1,1.33.22c.37.25.72-.36.35-.61Z"/><path class="cls-3" d="M489.76,347.87c-.5,3.21,1,6.43-.73,9.45a9.14,9.14,0,0,1-3.65,3.21c-1.48.8-1.33.84-3.05-.27-1.34-.2-1.82-.78-1.44-1.75a3.61,3.61,0,0,1,1.3-2.59c.31-.33-.19-.83-.5-.49-1.89,2.08-2.46,8.1,1.86,6.75a11.48,11.48,0,0,0,5.84-4.13c2.12-3.22.5-6.48,1.05-10,.07-.44-.61-.63-.68-.19Z"/><path class="cls-3" d="M489.86,351.59a28,28,0,0,0,4.54.2c.25.43-1.74,4.8-2,5.23-1.12,2.08-4.84,3.22-7.19,3.53-3.19.43-5.82-2.75-6.87-5.52-.16-.42-.84-.24-.68.18a8.59,8.59,0,0,0,.94,1.77c.74,1.13,1.27,2.73,2.16,3.74s2.08,1.12,3.49.83c1.65-.33,3.29-1,4.9-1.46.8-.24,2.65-.43,3.25-1,.42-.4.49-1.34.68-1.88a47.51,47.51,0,0,1,2.54-5.92c.13-.26-.08-.62-.39-.52a8.32,8.32,0,0,1-5.22.16.35.35,0,0,0-.18.67Z"/><path class="cls-3" d="M481.73,336.9a10.75,10.75,0,0,1-.27-6.23c.6-2.81,2.46-4.37,5.23-5.06s5.6.45,6.11,3.57a21.16,21.16,0,0,1-.13,5.73h.71c-.09-2.3-.12-5.83-1.56-7.75-1.2-1.6-3.71-2-5.55-1.71-5.76.83-5.49,6.24-5.09,10.83a.35.35,0,0,0,.69.09c.76-2.48.18-5.12,2.15-7.15s5.2-3.16,7.71-2.17l.09-.69-2.77.13a.35.35,0,0,0,0,.7,3.51,3.51,0,0,1,2.55.79c.35.24.66-.26.42-.55a5.88,5.88,0,0,0-6.65-1.7,4.9,4.9,0,0,0-3.78,4.66c-.06.41.56.44.69.09.72-2.07,2.64-3,4.56-3.76l-.27-.64a12.42,12.42,0,0,0-4,4.6c-.17.33.29.75.55.42,1.84-2.26,5.59-6.26,8.47-3.14.31.33.81-.17.5-.5-3.19-3.45-7.35.55-9.47,3.15l.56.42a11.63,11.63,0,0,1,3.78-4.34c.3-.22.12-.8-.27-.65-2.21.86-4.24,1.91-5.06,4.25l.69.1c.56-4.45,6.49-5.8,9.24-2.46l.42-.55a4.92,4.92,0,0,0-2.9-.89v.7l2.77-.12a.35.35,0,0,0,.1-.69c-2.5-1-5.57.07-7.61,1.65-2.92,2.27-2.14,5-3.12,8.15l.69.1c-.33-3.85-.89-8.8,3.81-10,2.43-.62,5,0,6.06,2.47a18.19,18.19,0,0,1,.92,6.17.36.36,0,0,0,.71,0c.29-2.54.9-6.33-.91-8.47a5.54,5.54,0,0,0-5.13-1.68c-2.34.35-5.11,1.76-6.11,4a11.84,11.84,0,0,0-.18,8.31c.17.41.85.23.68-.19Z"/><path class="cls-3" d="M485.91,326.29l-.5-.9c-.1-.19-.5-.69-.48-.91l-.17.3a1.92,1.92,0,0,1,.8-.17c.1-.06.13,0,.11.07s0,.13,0,.2,0,.39.05.58l.69-.09-.61-1.48c-.1-.24-.5-.39-.64-.08s-.84.07-1.13.1a1.25,1.25,0,0,0-.75.37,2.42,2.42,0,0,0-.49,1.93.35.35,0,0,0,.53.3l1.65-1a.36.36,0,0,0,0-.61,1.54,1.54,0,0,0-1.25-.25l.19.68a5,5,0,0,0,1.18-.47.36.36,0,0,0-.27-.65l-.91.32.27.64.76-.5a.35.35,0,0,0-.35-.6l-.23.09c-.41.18-.05.79.36.61l.22-.1-.35-.6-.76.49c-.32.21-.12.78.27.65l.91-.32-.27-.64a4.24,4.24,0,0,1-1,.4c-.44.11-.25.77.19.68a.83.83,0,0,1,.71.18v-.61l-1.65,1,.53.31a2.81,2.81,0,0,1,.06-1.08c.2-.58.66-.5,1.16-.46a1,1,0,0,0,1.05-.51l-.65-.08.61,1.47c.14.33.73.34.69-.09s.06-1.18-.33-1.47-1.12-.05-1.48.08a.5.5,0,0,0-.38.65,3.93,3.93,0,0,0,.45.83l.6,1.1c.22.39.83,0,.61-.36Z"/><path class="cls-3" d="M483,326c1.38.19,3.72.33,4.44-1.19a2.34,2.34,0,0,0-1.18-3c-1.78-.89-3.73.12-5.34.91s-1.74,1.7-1,3.27a2.54,2.54,0,0,0,3.11,1.44,10.09,10.09,0,0,0,2.85-1.15c.74-.41,1.85-.86,2.26-1.66a3.12,3.12,0,0,0-.63-3.53c-1.49-1.08-4,.17-5.52.7-.73.26-3.05,1.24-2.3,2.37.38.59,1.25.2,1.76,0,1.55-.59,2.82-1.81,4.61-1.49l-.15-.59c-1.1,1.08-3.05.65-4.31,1.44-.38.24-.74.62-.46,1.08.67,1.09,3.23-.48,3.65-1.24a.35.35,0,0,0-.06-.42c-.51-.61-1.89-.19-2.47.11a1.75,1.75,0,0,0-1.09,2.07.36.36,0,0,0,.24.25c2.07.39.45-4.23-1-1.48s3.36,3.43,2.41.35c-.86-2.76-3.85,1.56-1.54,2.6,1.15.51,2.38-.67,2.54-1.76s-.75-2.14-1.73-1.22a1.4,1.4,0,0,0,.71,2.43c1.58.15,2.52-1.87,2.6-3.13a.34.34,0,0,0-.35-.35c-1.06,0-3.05,2-1.35,2.64,1.4.54,2.9-1.3,2.48-2.56a.34.34,0,0,0-.43-.24,3.27,3.27,0,0,0-1.63.86.36.36,0,0,0,0,.5c.49.47,1.34,1.19,2.09.87s1.21-2,1.37-2.74c.06-.24-.16-.53-.43-.43-1.25.44-2.42,1.13-2.12,2.63a.34.34,0,0,0,.24.25c1.3.24,3.44-1.31,2.05-2.66-1.11-1.09-2.8,1.38-2.1,2.42,1,1.42,2.32-.87,2-1.89-.61-1.75-2,.21-1.67,1.34a.38.38,0,0,0,.34.26,1.5,1.5,0,0,0,1.09-2.17c-.6-1-1.54-.27-1.88.48s-.3,2,.82,1.51c.73-.31,1.44-1.84.61-2.38-1-.68-2.4,1-2.43,1.94a1.48,1.48,0,0,0,2.12,1.31c.65-.28,1.47-1.31.64-1.88-1.14-.79-1.58,1-1.51,1.69a.36.36,0,0,0,.44.34c.65-.09,2-1,.91-1.65-.84-.48-1.7.75-1.24,1.47a.83.83,0,0,0,1.53-.56c-.08-1.28-1.82-1.46-2.71-1-.65.3-1.81,1.36-.84,2s2.31-.46,2.28-1.52c-.13-3.9-5.09-.06-2.74,1.93.74.63,2.11.24,2-.86a2.25,2.25,0,0,0-2.63-1.67c-1,.43-1.8,1.79-.86,2.56s2.69.92,2.59-.64a1.25,1.25,0,0,0-1.92-1,1.31,1.31,0,0,0,.36,2.37c2.94.89.87-4.53-.41-2.1-.68,1.28.19,2.59,1.55,1.76,1-.59,1.63-2.28,0-2.5-1.15-.16-2.14,1.19-1,1.93.82.51,2.53-.31,1.79-1.3a.38.38,0,0,0-.4-.16l-.26,0c-.44.08-.25.76.19.68a5.75,5.75,0,0,0-1.47.31l.36.44c-1.14-.11-1.28-.68-.45-1.72a1.41,1.41,0,0,1,1.16.4c.42.33.26.24-.48-.29.1-.69.45-1,1-.95.93-.28.88.16-.16,1.3.59-.7,1.1-.67,1.55.1l.44.34,0-.43c-1-1.38-1.14-1.87-.35-1.47.38.07.43.14.15.2s-.22.17.48.13c.8.31-.64.15-.42.49-.29-.46,1.28-1,1.51-1.09l-.43-.44c-.27,1.17-1,2.85-2.29,1.56v.5a2.19,2.19,0,0,1,1.32-.69l-.43-.24q-2.16,3.1-.46.43l-.35-.35a1.81,1.81,0,0,1-.45,1.34c-.48,1.1-1.48,1.27-3,.5l.31-.74c.83.55.84.66,0,.34-1.79-.4.85-1,1.72-1.15,2.08-.39-.6.57-.7.59-.6.09.36-.27.56-.32.45-.11.92-.17,1.37-.28a3.68,3.68,0,0,0,1.85-.86.35.35,0,0,0-.15-.59,4.25,4.25,0,0,0-2.44.24c-.4.16-2.75,1.62-3,1.42-.75-.52,2.31-1.48,2.83-1.64s1-.35,1.51-.47a1.8,1.8,0,0,1,2.19,2.59c-.61,1.2-2.44,2-3.71,2.41-1,.3-2.08.58-2.86-.48a3.38,3.38,0,0,1-.54-1.73c.17-1.07,2.84-1.89,3.61-2.06a2.64,2.64,0,0,1,3.09,1.26c.95,2.12-3.07,1.88-3.69,1.79-.44-.06-.63.61-.19.68Z"/><path class="cls-3" d="M482.45,329.32l-2,3.31.6.36,1.52-3.37-.64-.27-.58,3.54c-.07.44.57.63.68.19a29.85,29.85,0,0,1,1.11-3.71l-.68-.18a21.27,21.27,0,0,1-.89,3.83c-.14.44.51.59.68.18a26.58,26.58,0,0,1,1.36-3.3c.72-1.25,1.67-1.58,2.83-2.2.33-.18.6-.6.9-.75,1.51-.77,2.81,0,4.07.72a.35.35,0,0,0,.35-.61c-.95-.55-2.33-1.72-3.53-1.56s-1.62,1.26-2.53,1.72-1.49.49-2.11,1.28c-1,1.24-1.43,3.09-2,4.52l.68.18a20.88,20.88,0,0,0,.89-3.83.35.35,0,0,0-.68-.18,29.71,29.71,0,0,0-1.11,3.7l.68.19.58-3.55c.06-.36-.46-.66-.64-.27l-1.52,3.37c-.19.41.37.76.6.36l2-3.31a.35.35,0,0,0-.61-.36Z"/><path class="cls-6" d="M481.07,339.79a4.56,4.56,0,0,1,.36,2.62l-.18.34-.65-.07c-.16-.12-.16-.56-.17-.75s-.05-1.25-.07-1.25c.45-.05.45-.75,0-.7-.81.08-.67,1-.65,1.6s.08,1.69.89,2a1.21,1.21,0,0,0,1.5-.95,5.2,5.2,0,0,0-.35-3c-.17-.42-.85-.24-.68.18Z"/><path class="cls-6" d="M494.18,337.46c.58,0,.44,1.18.38,1.51s-.58,1.7-1.06,1.06c-.27-.36-.88,0-.61.35.83,1.11,2,.05,2.26-.9s.32-2.67-1-2.72c-.45,0-.45.68,0,.7Z"/><path class="cls-6" d="M488.76,342.31a.48.48,0,0,0-.65-.48,4,4,0,0,0-1.26,1.11c-.23.25,0,.71.34.59a2.36,2.36,0,0,0,1.39-1.2H488a1,1,0,0,0,1.95-.16l-.69-.09a.92.92,0,0,0,.89,1l-.25-.6a2.15,2.15,0,0,1-1,.69c-.28.1-.91.23-1-.18l-.51.4a2.3,2.3,0,0,0,2.19-.12.35.35,0,0,0-.35-.61,1.58,1.58,0,0,1-1.49.12c-.26-.11-.61.08-.51.4.43,1.5,2.52.57,3.19-.21a.36.36,0,0,0-.25-.6l-.18-.25c0-.42-.56-.45-.69-.1s-.4.35-.67,0a.36.36,0,0,0-.61,0,1.59,1.59,0,0,1-1,.88l.35.59c.06-.06.91-.91.88-.93l-.17-.3v.1c0,.45.69.45.71,0Z"/><path class="cls-2" d="M482.89,327.17a7.43,7.43,0,0,0,4.43-1.51c.39-.24,0-.85-.35-.61a6.8,6.8,0,0,1-4.08,1.42c-.46,0-.45.66,0,.7Z"/><path class="cls-2" d="M483.4,327.46c1.8-.18,3.75-.48,4.73-2.19.2-.34-.27-.73-.55-.43a2.57,2.57,0,0,1-.74.57c-.41.2,0,.81.35.6a3.07,3.07,0,0,0,.89-.67l-.56-.43c-.84,1.48-2.58,1.7-4.12,1.85-.45,0-.45.74,0,.7Z"/><path class="cls-2" d="M481.08,350.74a.43.43,0,0,0,.37.68c.45.06.45-.64,0-.7h-.07l.3.18,0-.08v.35l0-.06a.35.35,0,0,0-.61-.36Z"/><path class="cls-2" d="M481.3,352.51l.09.09c.32.32.81-.18.49-.5l-.08-.09a.35.35,0,0,0-.5.5Z"/><path class="cls-2" d="M481.55,354.2h.25a.35.35,0,0,0,0-.7h-.25a.35.35,0,0,0,0,.7Z"/></svg>